<?xml version="1.0" encoding="UTF-8" standalone="no"?>
<!DOCTYPE svg PUBLIC "-//W3C//DTD SVG 1.1//EN" "http://www.w3.org/Graphics/SVG/1.1/DTD/svg11.dtd">
<svg width="100%" height="100%" viewBox="0 0 38 38" version="1.1" xmlns="http://www.w3.org/2000/svg" xmlns:xlink="http://www.w3.org/1999/xlink" xml:space="preserve" xmlns:serif="http://www.serif.com/" style="fill-rule:evenodd;clip-rule:evenodd;stroke-linejoin:round;stroke-miterlimit:2;">
    <g transform="matrix(0.0735353,0,0,0.0735353,-1.02282e-05,-0.00198545)">
        <path d="M510.362,215.571L428.372,90.546C426.523,87.728 423.381,86.03 420.011,86.03L92.378,86.03C89.015,86.03 85.878,87.72 84.028,90.529L1.906,215.181C1.515,215.72 1.176,216.302 0.893,216.924C-0.728,220.498 -0.108,224.689 2.478,227.641L44.103,275.168C47.742,279.323 54.058,279.741 58.212,276.103C62.366,272.464 62.784,266.147 59.146,261.994L32.049,231.053L166.55,231.053L234.137,461.8L157.762,374.595C154.124,370.44 147.806,370.022 143.653,373.66C139.499,377.299 139.081,383.616 142.719,387.769L248.509,508.56C250.407,510.728 253.15,511.972 256.031,511.972C258.913,511.972 261.654,510.728 263.552,508.559L376.182,379.927C379.821,375.772 379.402,369.455 375.246,365.818C371.09,362.179 364.773,362.598 361.137,366.754L277.927,461.787L345.511,231.052L479.956,231.052L417.773,302.072C414.134,306.227 414.553,312.544 418.709,316.181C420.606,317.843 422.954,318.658 425.292,318.658C428.074,318.658 430.842,317.503 432.818,315.245L509.524,227.64C512.482,224.262 512.825,219.326 510.362,215.571ZM28.573,211.055L92.358,114.234L155.853,211.055L28.573,211.055ZM110.892,106.029L237.515,106.029L174.204,202.57L110.892,106.029ZM256.03,114.263L319.505,211.055L192.555,211.055L256.03,114.263ZM256.03,465.403L187.388,231.053L324.672,231.053L256.03,465.403ZM338.02,202.821L274.545,106.029L401.497,106.029L338.02,202.821ZM356.535,211.055L420.011,114.263L483.485,211.055L356.535,211.055Z" style="fill:white;fill-rule:nonzero;"/>
        <path d="M157.189,327.017C131.396,327.017 110.411,306.032 110.411,280.239C110.411,274.717 105.934,270.24 100.412,270.24C94.89,270.24 90.413,274.717 90.413,280.239C90.413,306.032 69.428,327.017 43.635,327.017C38.114,327.017 33.636,331.494 33.636,337.016C33.636,342.538 38.114,347.015 43.635,347.015C69.428,347.015 90.413,368 90.413,393.793C90.413,399.315 94.891,403.792 100.412,403.792C105.933,403.792 110.411,399.315 110.411,393.793C110.411,368 131.396,347.015 157.189,347.015C162.711,347.015 167.188,342.538 167.188,337.016C167.188,331.494 162.711,327.017 157.189,327.017ZM100.412,358.677C94.961,349.895 87.533,342.468 78.752,337.016C87.533,331.565 94.96,324.138 100.412,315.355C105.863,324.137 113.291,331.564 122.072,337.016C113.291,342.468 105.864,349.894 100.412,358.677Z" style="fill:white;fill-rule:nonzero;"/>
        <path d="M502.001,40.023C485.461,40.023 472.004,26.566 472.004,10.026C472.004,4.504 467.526,0.027 462.005,0.027C456.484,0.027 452.006,4.504 452.006,10.026C452.006,26.566 438.549,40.023 422.009,40.023C416.488,40.023 412.01,44.5 412.01,50.022C412.01,55.544 416.488,60.021 422.009,60.021C438.549,60.021 452.006,73.478 452.006,90.018C452.006,95.54 456.484,100.017 462.005,100.017C467.526,100.017 472.004,95.54 472.004,90.018C472.004,73.478 485.461,60.021 502.001,60.021C507.522,60.021 512,55.544 512,50.022C512,44.5 507.522,40.023 502.001,40.023ZM462.005,60.052C459.152,56.254 455.773,52.875 451.975,50.022C455.773,47.169 459.152,43.79 462.005,39.992C464.858,43.79 468.237,47.169 472.035,50.022C468.237,52.874 464.857,56.254 462.005,60.052Z" style="fill:white;fill-rule:nonzero;"/>
        <path d="M402.783,335.371C400.924,333.501 398.344,332.441 395.715,332.441C393.084,332.441 390.516,333.501 388.646,335.371C386.786,337.231 385.716,339.811 385.716,342.44C385.716,345.069 386.785,347.649 388.646,349.509C390.506,351.369 393.084,352.439 395.715,352.439C398.345,352.439 400.924,351.369 402.783,349.509C404.643,347.649 405.714,345.069 405.714,342.44C405.714,339.811 404.644,337.231 402.783,335.371Z" style="fill:white;fill-rule:nonzero;"/>
    </g>
</svg>
