<?xml version="1.0" encoding="UTF-8" standalone="no"?>
<!DOCTYPE svg PUBLIC "-//W3C//DTD SVG 1.1//EN" "http://www.w3.org/Graphics/SVG/1.1/DTD/svg11.dtd">
<svg width="100%" height="100%" viewBox="0 0 31 31" version="1.1" xmlns="http://www.w3.org/2000/svg" xmlns:xlink="http://www.w3.org/1999/xlink" xml:space="preserve" xmlns:serif="http://www.serif.com/" style="fill-rule:evenodd;clip-rule:evenodd;stroke-linejoin:round;stroke-miterlimit:2;">
    <g transform="matrix(0.0430766,0,0,0.0605469,0,-160.987)">
        <g transform="matrix(1.40556,0,0,1,0,2658.89)">
            <path d="M502,0L10,0C4.477,0 0,4.477 0,10L0,502C0,507.523 4.477,512 10,512L502,512C507.523,512 512,507.523 512,502L512,10C512,4.477 507.523,0 502,0ZM492,338L452,338L452,174L492,174L492,338ZM442,154C436.477,154 432,158.477 432,164L432,216L429.926,216L339.344,125.414C350.793,115.066 358,100.109 358,83.5L358,60L492,60L492,154L442,154ZM374.039,287.535L256,405.574L137.961,287.535C140.617,280.855 142,273.539 142,266C142,258.605 140.664,251.41 138.098,244.828L226,156.926L226,196.016C213.535,205.391 206,220.223 206,236C206,263.57 228.43,286 256,286C283.57,286 306,263.57 306,236C306,220.223 298.465,205.391 286,196.016L286,156.926L373.898,244.828C371.336,251.41 370,258.605 370,266C370,273.539 371.383,280.855 374.039,287.535ZM270.992,210.02C280.25,215.379 286,225.332 286,236C286,252.543 272.543,266 256,266C239.457,266 226,252.543 226,236C226,225.332 231.75,215.379 241.008,210.02C244.098,208.234 246,204.934 246,201.367L246,140L266,140L266,201.363C266,204.934 267.902,208.234 270.992,210.02ZM210.5,120C190.375,120 174,103.625 174,83.5L174,80L338,80L338,83.5C338,103.625 321.625,120 301.5,120L210.5,120ZM60,338L20,338L20,174L60,174L60,338ZM60,154L20,154L20,134L60,134L60,154ZM20,358L60,358L60,378L20,378L20,358ZM80,124C80,118.477 75.523,114 70,114L20,114L20,60L154,60L154,83.5C154,100.109 161.207,115.066 172.656,125.414L82.074,216L80,216L80,124ZM492,40L358,40L358,20L492,20L492,40ZM338,60L174,60L174,20L338,20L338,60ZM20,20L154,20L154,40L20,40L20,20ZM20,398L70,398C75.523,398 80,393.523 80,388L80,316L81.574,316L207.414,441.84C206.473,445.07 206,448.402 206,451.797L206,492L20,492L20,398ZM226,492L226,451.797C226,449.16 226.664,446.578 227.973,444.121C230.035,440.238 229.32,435.465 226.215,432.355L92.785,298.93C90.91,297.055 88.367,296 85.715,296L80,296L80,236L86.215,236C88.867,236 91.41,234.945 93.285,233.07L190.16,136.195C196.477,138.645 203.332,140 210.5,140L214.641,140L118.984,235.656C115.801,238.84 115.137,243.762 117.367,247.676C120.398,252.996 122,259.332 122,266C122,272.781 120.352,279.199 117.23,284.563C114.949,288.484 115.598,293.453 118.805,296.664L248.93,426.785C250.883,428.738 253.441,429.715 256,429.715C258.559,429.715 261.117,428.738 263.07,426.785L393.195,296.664C396.402,293.453 397.051,288.484 394.77,284.563C391.648,279.199 390,272.781 390,266C390,259.332 391.602,252.996 394.633,247.68C396.863,243.766 396.199,238.844 393.016,235.656L297.359,140L301.5,140C308.668,140 315.523,138.645 321.84,136.199L418.715,233.07C420.59,234.945 423.133,236 425.785,236L432,236L432,296L426.285,296C423.633,296 421.09,297.055 419.215,298.93L285.789,432.355C282.68,435.465 281.965,440.238 284.031,444.121C285.34,446.578 286,449.16 286,451.797L286,492L226,492ZM306,492L306,451.797C306,448.398 305.527,445.07 304.59,441.84L430.426,316L432,316L432,348C432,353.523 436.477,358 442,358L492,358L492,492L306,492Z" style="fill:white;fill-rule:nonzero;"/>
        </g>
        <g transform="matrix(1.40556,0,0,1,0,2658.89)">
            <path d="M117.762,385.102C115.09,385.102 112.578,386.141 110.691,388.031C108.801,389.91 107.762,392.43 107.762,395.102C107.762,397.77 108.801,400.281 110.691,402.172C112.578,404.059 115.09,405.102 117.762,405.102C120.441,405.102 122.949,404.059 124.828,402.172C126.719,400.281 127.77,397.77 127.77,395.102C127.77,392.43 126.719,389.91 124.828,388.031C122.949,386.141 120.441,385.102 117.762,385.102Z" style="fill:white;fill-rule:nonzero;"/>
        </g>
        <g transform="matrix(1.40556,0,0,1,0,2658.89)">
            <path d="M181.398,444.602L153.121,416.309C151.23,414.422 148.719,413.379 146.051,413.379C143.379,413.379 140.871,414.422 138.98,416.309C135.078,420.211 135.078,426.551 138.98,430.449L167.262,458.742C169.148,460.633 171.66,461.672 174.328,461.672C177.012,461.672 179.52,460.633 181.398,458.742C183.289,456.852 184.328,454.34 184.328,451.672C184.328,449 183.289,446.48 181.398,444.602Z" style="fill:white;fill-rule:nonzero;"/>
        </g>
        <g transform="matrix(1.40556,0,0,1,0,2658.89)">
            <path d="M409.328,377.672C406.66,377.672 404.148,378.711 402.262,380.602L373.98,408.879C372.09,410.77 371.051,413.281 371.051,415.949C371.051,418.621 372.09,421.129 373.98,423.02C375.859,424.91 378.379,425.949 381.051,425.949C383.719,425.949 386.23,424.91 388.121,423.02L416.398,394.738C420.301,390.84 420.301,384.488 416.398,380.598C414.512,378.711 412,377.672 409.328,377.672Z" style="fill:white;fill-rule:nonzero;"/>
        </g>
        <g transform="matrix(1.40556,0,0,1,0,2658.89)">
            <path d="M352.762,434.23C350.09,434.23 347.578,435.27 345.691,437.16C343.801,439.051 342.762,441.559 342.762,444.23C342.762,446.91 343.801,449.418 345.691,451.309C347.582,453.188 350.09,454.23 352.762,454.23C355.43,454.23 357.941,453.188 359.828,451.309C361.719,449.418 362.762,446.91 362.762,444.23C362.762,441.559 361.719,439.051 359.828,437.16C357.949,435.27 355.438,434.23 352.762,434.23Z" style="fill:white;fill-rule:nonzero;"/>
        </g>
    </g>
</svg>
