<?xml version="1.0" encoding="UTF-8" standalone="no"?>
<!DOCTYPE svg PUBLIC "-//W3C//DTD SVG 1.1//EN" "http://www.w3.org/Graphics/SVG/1.1/DTD/svg11.dtd">
<svg width="100%" height="100%" viewBox="0 0 31 34" version="1.1" xmlns="http://www.w3.org/2000/svg" xmlns:xlink="http://www.w3.org/1999/xlink" xml:space="preserve" xmlns:serif="http://www.serif.com/" style="fill-rule:evenodd;clip-rule:evenodd;stroke-linejoin:round;stroke-miterlimit:2;">
    <g transform="matrix(0.168267,0,0,0.168267,-1.86507,2.84217e-14)">
        <path d="M104.809,175.836C104.809,173.784 106.459,172.128 108.511,172.128L121.243,172.128C126.596,175.721 132.642,178.211 139.066,179.374C138.797,179.436 138.554,179.532 138.274,179.532L108.51,179.532C106.459,179.539 104.809,177.876 104.809,175.836ZM95.76,146.2L102.357,146.2C101.657,143.764 101.145,141.299 100.853,138.79L95.76,138.79C93.714,138.79 92.054,140.452 92.054,142.498C92.054,144.544 93.714,146.2 95.76,146.2ZM68.499,52.632C63.954,49.578 60.824,43.528 60.824,38.091C60.824,30.415 67.041,24.186 74.722,24.186C82.403,24.186 88.62,30.415 88.62,38.091C88.62,43.529 85.484,49.578 80.932,52.632C91.826,55.393 99.893,64.859 99.893,71.861C99.893,80.142 49.554,80.142 49.554,71.861C49.55,64.858 57.624,55.399 68.499,52.632ZM67.659,71.027L74.716,78.072L81.779,71.027L75.839,56.672L75.894,56.672L78.202,54.035C77.078,54.428 75.937,54.671 74.716,54.671C73.508,54.671 72.354,54.427 71.23,54.023L73.532,56.672L73.593,56.672L67.659,71.027ZM160.688,193.836L160.701,193.824L160.524,193.513C160.432,193.513 160.353,193.536 160.268,193.536L31.249,193.536C24.579,193.536 19.153,188.111 19.153,181.443L19.153,20.152C19.153,13.487 24.579,8.062 31.249,8.062L160.269,8.062C166.937,8.062 172.362,13.487 172.362,20.152L172.362,93.974C175.255,95.801 177.989,97.877 180.43,100.307L180.43,20.152C180.43,9.036 171.388,0 160.269,0L31.249,0C20.127,0 11.084,9.036 11.084,20.152L11.084,181.444C11.084,192.556 20.126,201.593 31.248,201.593L160.268,201.593C161.839,201.593 163.362,201.367 164.841,201.021L160.688,193.836ZM53.249,129.315L100.76,129.315C100.985,126.836 101.396,124.365 102.02,121.904L53.255,121.904C51.209,121.904 49.556,123.56 49.556,125.607C49.55,127.665 51.203,129.315 53.249,129.315ZM53.249,95.551L119.825,95.551C121.14,94.595 122.511,93.691 123.941,92.863C127.571,90.768 131.467,89.191 135.493,88.135L53.249,88.135C51.203,88.135 49.55,89.795 49.55,91.846C49.55,93.897 51.203,95.551 53.249,95.551ZM53.249,112.43L105.515,112.43C106.819,109.812 108.353,107.334 110.107,105.02L53.249,105.02C51.203,105.02 49.55,106.682 49.55,108.728C49.55,110.774 51.203,112.43 53.249,112.43ZM179.803,114.684C190.13,132.574 183.98,155.541 166.078,165.857C148.194,176.178 125.231,170.058 114.904,152.144C104.571,134.26 110.727,111.297 128.605,100.968C146.507,90.637 169.476,96.784 179.803,114.684ZM174.438,117.789C165.809,102.858 146.647,97.725 131.722,106.328C116.785,114.963 111.64,134.101 120.286,149.051C128.896,163.981 148.053,169.126 162.989,160.504C177.921,151.863 183.048,132.719 174.438,117.789ZM175.504,163.555L159.398,172.86L171.802,194.33L187.902,185.038L175.504,163.555ZM189.582,187.96L173.464,197.258C176.046,201.722 181.734,203.232 186.178,200.674C190.629,198.104 192.157,192.405 189.582,187.96Z" style="fill:white;fill-rule:nonzero;"/>
    </g>
</svg>
