<?xml version="1.0" encoding="UTF-8" standalone="no"?>
<!DOCTYPE svg PUBLIC "-//W3C//DTD SVG 1.1//EN" "http://www.w3.org/Graphics/SVG/1.1/DTD/svg11.dtd">
<svg width="100%" height="100%" viewBox="0 0 31 31" version="1.1" xmlns="http://www.w3.org/2000/svg" xmlns:xlink="http://www.w3.org/1999/xlink" xml:space="preserve" xmlns:serif="http://www.serif.com/" style="fill-rule:evenodd;clip-rule:evenodd;stroke-linejoin:round;stroke-miterlimit:2;">
    <g transform="matrix(0.0430766,0,0,0.0605469,0,-0.0663594)">
        <g transform="matrix(1.40556,0,0,1,0,0)">
            <path d="M499.513,462.037L455.415,462.037L455.415,180.557C455.415,173.672 449.813,168.07 442.928,168.07L414.437,168.07C410.299,168.07 406.945,171.424 406.945,175.562C406.945,179.7 410.299,183.054 414.437,183.054L440.431,183.054L440.431,462.037L369.264,462.037L369.264,183.054L379.207,183.054C383.345,183.054 386.699,179.7 386.699,175.562C386.699,171.424 383.345,168.07 379.207,168.07L366.767,168.07C359.882,168.07 354.28,173.672 354.28,180.557L354.28,462.038L306.569,462.038L306.569,275.411C306.569,268.526 300.967,262.924 294.082,262.924L217.92,262.924C211.035,262.924 205.433,268.526 205.433,275.411L205.433,462.037L157.721,462.037L157.721,357.354C157.721,350.469 152.119,344.867 145.234,344.867L69.073,344.867C62.188,344.867 56.586,350.469 56.586,357.354L56.586,390.859C56.586,394.997 59.94,398.351 64.078,398.351C68.216,398.351 71.57,394.997 71.57,390.859L71.57,359.852L142.736,359.852L142.736,462.038L71.57,462.038L71.57,425.7C71.57,421.562 68.216,418.208 64.078,418.208C59.94,418.208 56.586,421.562 56.586,425.7L56.586,462.038L12.487,462.038C5.602,462.037 0,467.639 0,474.525L0,498.416C0,505.301 5.602,510.903 12.487,510.903L499.513,510.903C506.398,510.903 512,505.301 512,498.416L512,474.525C512,467.639 506.398,462.037 499.513,462.037ZM220.417,277.909L291.584,277.909L291.584,462.038L220.417,462.038L220.417,277.909ZM497.016,495.919L14.985,495.919L14.985,477.023L497.016,477.023L497.016,495.919Z" style="fill:white;fill-rule:nonzero;"/>
        </g>
        <g transform="matrix(1.40556,0,0,1,0,0)">
            <path d="M62.246,275.452L57.96,300.441C56.765,307.409 59.576,314.318 65.295,318.473C68.527,320.821 72.308,322.015 76.114,322.015C79.044,322.015 81.989,321.307 84.711,319.877L107.152,308.079L129.593,319.877C135.849,323.166 143.288,322.628 149.009,318.474C154.728,314.318 157.539,307.408 156.344,300.441L152.058,275.452L170.213,257.755C175.275,252.821 177.063,245.579 174.879,238.856C172.694,232.132 166.992,227.324 159.996,226.307L134.906,222.661L123.686,199.926C120.557,193.586 114.222,189.649 107.152,189.649C100.083,189.649 93.748,193.587 90.62,199.926L79.4,222.661L54.309,226.307C47.313,227.324 41.611,232.131 39.426,238.856C37.242,245.58 39.029,252.821 44.091,257.754L62.246,275.452ZM53.677,243.486C53.877,242.872 54.547,241.415 56.464,241.136L82.7,237.323C86.863,236.72 90.46,234.106 92.323,230.333L104.057,206.558C104.914,204.821 106.507,204.633 107.152,204.633C107.797,204.633 109.39,204.82 110.248,206.558L121.982,230.332C123.844,234.105 127.441,236.719 131.603,237.323L157.841,241.136C159.758,241.415 160.428,242.872 160.628,243.486C160.828,244.1 161.142,245.673 159.754,247.024L140.77,265.53C137.756,268.465 136.382,272.695 137.094,276.841L141.576,302.973C141.903,304.882 140.724,305.971 140.202,306.35C139.679,306.729 138.279,307.515 136.567,306.612L113.099,294.274C111.237,293.295 109.194,292.806 107.152,292.806C105.11,292.806 103.067,293.296 101.205,294.274L77.737,306.612C76.022,307.514 74.624,306.729 74.102,306.35C73.58,305.97 72.401,304.882 72.728,302.973L77.21,276.842C77.922,272.695 76.547,268.466 73.536,265.531L54.55,247.025C53.163,245.673 53.477,244.1 53.677,243.486Z" style="fill:white;fill-rule:nonzero;"/>
        </g>
        <g transform="matrix(1.40556,0,0,1,0,0)">
            <path d="M211.093,184.295L206.807,209.285C205.612,216.252 208.422,223.161 214.141,227.316C217.373,229.664 221.154,230.857 224.961,230.857C227.891,230.857 230.836,230.15 233.558,228.72L255.999,216.922L278.44,228.72C284.697,232.011 292.137,231.472 297.858,227.316C303.577,223.161 306.387,216.251 305.192,209.285L300.905,184.295L319.061,166.598C324.123,161.664 325.91,154.422 323.726,147.699C321.542,140.975 315.839,136.168 308.842,135.151L283.753,131.505L272.532,108.769C269.403,102.43 263.068,98.492 255.999,98.492C248.93,98.492 242.595,102.43 239.466,108.769L228.246,131.505L203.155,135.151C196.16,136.168 190.457,140.975 188.272,147.699C186.087,154.421 187.874,161.664 192.937,166.599L211.093,184.295ZM202.523,152.329C202.723,151.715 203.393,150.259 205.31,149.98L231.55,146.167C235.712,145.561 239.307,142.949 241.169,139.177L252.903,115.401C253.76,113.664 255.353,113.477 255.998,113.477C256.643,113.477 258.236,113.664 259.093,115.401L270.829,139.18C272.69,142.95 276.286,145.561 280.449,146.167L306.687,149.98C308.604,150.259 309.274,151.717 309.474,152.33C309.673,152.944 309.987,154.516 308.6,155.868L289.614,174.375C286.603,177.311 285.23,181.538 285.94,185.685L290.422,211.817C290.749,213.726 289.57,214.814 289.048,215.193C288.526,215.571 287.126,216.359 285.412,215.455L261.945,203.118C260.084,202.139 258.041,201.649 255.998,201.649C253.956,201.649 251.913,202.139 250.051,203.117L226.583,215.455C224.867,216.358 223.469,215.571 222.948,215.193C222.426,214.814 221.248,213.726 221.575,211.817L226.057,185.685C226.768,181.54 225.395,177.312 222.382,174.374L203.396,155.869C202.01,154.516 202.324,152.944 202.523,152.329Z" style="fill:white;fill-rule:nonzero;"/>
        </g>
        <g transform="matrix(1.40556,0,0,1,0,0)">
            <path d="M359.94,86.899L355.654,111.888C354.458,118.855 357.269,125.765 362.988,129.92C368.708,134.075 376.146,134.612 382.405,131.324L404.846,119.526L427.287,131.324C430.009,132.754 432.954,133.461 435.885,133.461C439.692,133.461 443.473,132.268 446.704,129.92C452.424,125.765 455.234,118.855 454.038,111.888L449.752,86.899L467.907,69.202C472.97,64.268 474.757,57.026 472.573,50.304C470.389,43.58 464.686,38.772 457.69,37.755L432.6,34.108L421.379,11.373C418.25,5.034 411.915,1.096 404.846,1.096C397.777,1.096 391.442,5.034 388.313,11.373L377.092,34.108L352.003,37.755C345.007,38.771 339.304,43.579 337.119,50.303C334.935,57.025 336.722,64.268 341.784,69.202L359.94,86.899ZM351.371,54.934C351.57,54.32 352.24,52.863 354.158,52.584L380.393,48.771C384.559,48.167 388.157,45.554 390.017,41.781L401.751,18.006C402.609,16.269 404.202,16.082 404.846,16.082C405.49,16.082 407.085,16.269 407.941,18.006L419.676,41.782C421.538,45.554 425.136,48.168 429.296,48.771L455.535,52.584C457.452,52.863 458.123,54.321 458.322,54.934C458.521,55.548 458.835,57.12 457.448,58.472L438.461,76.98C435.451,79.916 434.077,84.143 434.787,88.29L439.269,114.421C439.596,116.331 438.417,117.419 437.895,117.798C437.374,118.178 435.974,118.963 434.259,118.06L410.792,105.723C408.93,104.744 406.887,104.254 404.845,104.254C402.802,104.254 400.76,104.744 398.899,105.722L375.431,118.06C373.717,118.963 372.317,118.176 371.795,117.798C371.273,117.418 370.095,116.331 370.421,114.421L374.903,88.292C375.615,84.146 374.242,79.918 371.229,76.979L352.243,58.472C350.856,57.12 351.171,55.547 351.371,54.934Z" style="fill:white;fill-rule:nonzero;"/>
        </g>
    </g>
</svg>
