<?xml version="1.0" encoding="UTF-8" standalone="no"?>
<!DOCTYPE svg PUBLIC "-//W3C//DTD SVG 1.1//EN" "http://www.w3.org/Graphics/SVG/1.1/DTD/svg11.dtd">
<svg width="100%" height="100%" viewBox="0 0 32 32" version="1.1" xmlns="http://www.w3.org/2000/svg" xmlns:xlink="http://www.w3.org/1999/xlink" xml:space="preserve" xmlns:serif="http://www.serif.com/" style="fill-rule:evenodd;clip-rule:evenodd;stroke-linejoin:round;stroke-miterlimit:2;">
    <g transform="matrix(0.0610245,0,0,0.0610245,0,0)">
        <path d="M366.933,170.667L349.866,170.667C345.156,170.667 341.333,174.49 341.333,179.2C341.333,183.91 345.156,187.733 349.866,187.733L366.933,187.733C371.643,187.733 375.466,183.91 375.466,179.2C375.466,174.49 371.644,170.667 366.933,170.667Z" style="fill:white;fill-rule:nonzero;"/>
        <path d="M366.933,204.8L349.866,204.8C345.156,204.8 341.333,208.623 341.333,213.333C341.333,218.043 345.156,221.866 349.866,221.866L366.933,221.866C371.643,221.866 375.466,218.043 375.466,213.333C375.467,208.623 371.644,204.8 366.933,204.8Z" style="fill:white;fill-rule:nonzero;"/>
        <path d="M366.933,136.533L349.866,136.533C345.156,136.533 341.333,140.356 341.333,145.066C341.333,149.776 345.156,153.599 349.866,153.599L366.933,153.599C371.643,153.599 375.466,149.776 375.466,145.066C375.467,140.356 371.644,136.533 366.933,136.533Z" style="fill:white;fill-rule:nonzero;"/>
        <path d="M366.933,409.6L349.866,409.6C345.156,409.6 341.333,413.423 341.333,418.133C341.333,422.843 345.156,426.666 349.866,426.666L366.933,426.666C371.643,426.666 375.466,422.843 375.466,418.133C375.466,413.423 371.644,409.6 366.933,409.6Z" style="fill:white;fill-rule:nonzero;"/>
        <path d="M179.2,136.533L128,136.533C123.29,136.533 119.467,140.356 119.467,145.066L119.467,264.533C119.467,269.243 123.29,273.066 128,273.066L179.2,273.066C183.91,273.066 187.733,269.243 187.733,264.533L187.733,145.067C187.733,140.356 183.91,136.533 179.2,136.533ZM170.667,256L136.534,256L136.534,153.6L170.667,153.6L170.667,256Z" style="fill:white;fill-rule:nonzero;"/>
        <path d="M179.2,409.6L128,409.6C123.29,409.6 119.467,413.423 119.467,418.133C119.467,422.843 123.29,426.666 128,426.666L179.2,426.666C183.91,426.666 187.733,422.843 187.733,418.133C187.733,413.423 183.91,409.6 179.2,409.6Z" style="fill:white;fill-rule:nonzero;"/>
        <path d="M179.2,443.733L128,443.733C123.29,443.733 119.467,447.556 119.467,452.266C119.467,456.976 123.29,460.799 128,460.799L179.2,460.799C183.91,460.799 187.733,456.976 187.733,452.266C187.733,447.556 183.91,443.733 179.2,443.733Z" style="fill:white;fill-rule:nonzero;"/>
        <path d="M366.933,443.733L349.866,443.733C345.156,443.733 341.333,447.556 341.333,452.266C341.333,456.976 345.156,460.799 349.866,460.799L366.933,460.799C371.643,460.799 375.466,456.976 375.466,452.266C375.467,447.556 371.644,443.733 366.933,443.733Z" style="fill:white;fill-rule:nonzero;"/>
        <path d="M469.333,443.733L435.2,443.733C430.49,443.733 426.667,447.556 426.667,452.266C426.667,456.976 430.49,460.799 435.2,460.799L469.333,460.799C474.043,460.799 477.866,456.976 477.866,452.266C477.867,447.556 474.044,443.733 469.333,443.733Z" style="fill:white;fill-rule:nonzero;"/>
        <path d="M290.133,145.067C290.133,140.357 286.31,136.534 281.6,136.534L247.467,136.534C242.757,136.534 238.934,140.357 238.934,145.067L238.934,264.534C238.934,269.244 242.757,273.067 247.467,273.067L281.6,273.067C286.31,273.067 290.133,269.244 290.133,264.534L290.133,145.067ZM273.067,256L256,256L256,153.6L273.067,153.6L273.067,256Z" style="fill:white;fill-rule:nonzero;"/>
        <path d="M469.333,409.6L435.2,409.6C430.49,409.6 426.667,413.423 426.667,418.133C426.667,422.843 430.49,426.666 435.2,426.666L469.333,426.666C474.043,426.666 477.866,422.843 477.866,418.133C477.866,413.423 474.044,409.6 469.333,409.6Z" style="fill:white;fill-rule:nonzero;"/>
        <path d="M281.6,443.733L247.467,443.733C242.757,443.733 238.934,447.556 238.934,452.266C238.934,456.976 242.757,460.799 247.467,460.799L281.6,460.799C286.31,460.799 290.133,456.976 290.133,452.266C290.133,447.556 286.31,443.733 281.6,443.733Z" style="fill:white;fill-rule:nonzero;"/>
        <path d="M435.2,307.2C439.91,307.2 443.733,303.377 443.733,298.667L443.733,213.334C443.733,208.624 439.91,204.801 435.2,204.801C430.49,204.801 426.667,208.624 426.667,213.334L426.667,298.667C426.667,303.377 430.49,307.2 435.2,307.2Z" style="fill:white;fill-rule:nonzero;"/>
        <path d="M477.867,213.333C477.867,208.623 474.044,204.8 469.334,204.8C464.624,204.8 460.801,208.623 460.801,213.333L460.801,298.666C460.801,303.376 464.624,307.199 469.334,307.199C474.044,307.199 477.867,303.376 477.867,298.666L477.867,213.333Z" style="fill:white;fill-rule:nonzero;"/>
        <path d="M486.4,68.267L435.2,68.267C430.49,68.267 426.667,72.09 426.667,76.8C426.667,81.51 430.49,85.333 435.2,85.333L486.4,85.333C491.102,85.333 494.933,89.164 494.933,93.866L494.933,486.4C494.933,491.102 491.102,494.933 486.4,494.933L409.6,494.933L409.6,136.533L460.8,136.533C465.51,136.533 469.333,132.71 469.333,128C469.333,123.29 465.51,119.467 460.8,119.467L409.6,119.467L409.6,42.667C409.6,28.314 398.353,17.067 384,17.067L332.8,17.067C318.686,17.067 307.2,28.553 307.2,42.667L307.2,494.934L221.867,494.934L221.867,51.2L281.6,51.2C286.31,51.2 290.133,47.377 290.133,42.667C290.133,37.957 286.31,34.134 281.6,34.134L221.867,34.134L221.867,25.6C221.867,11.247 210.62,0 196.267,0L110.934,0C96.82,0 85.334,11.486 85.334,25.6L85.334,102.4L42.667,102.4C37.957,102.4 34.134,106.223 34.134,110.933C34.134,115.643 37.957,119.466 42.667,119.466L85.334,119.466L85.334,494.933L25.6,494.933C20.898,494.933 17.067,491.102 17.067,486.4L17.067,76.8C17.067,72.098 20.898,68.267 25.6,68.267L59.733,68.267C64.443,68.267 68.266,64.444 68.266,59.734C68.266,55.024 64.444,51.2 59.733,51.2L25.6,51.2C11.486,51.2 0,62.686 0,76.8L0,486.4C0,500.514 11.486,512 25.6,512L486.4,512C500.514,512 512,500.514 512,486.4L512,93.867C512,79.753 500.514,68.267 486.4,68.267ZM204.799,494.933L102.4,494.933L102.4,68.267L179.2,68.267C183.91,68.267 187.733,64.444 187.733,59.734C187.733,55.024 183.91,51.2 179.2,51.2L102.4,51.2L102.4,25.6C102.4,20.813 106.146,17.067 110.933,17.067L196.266,17.067C201.13,17.067 204.799,20.736 204.799,25.6L204.799,494.933ZM392.533,494.933L324.266,494.933L324.266,85.333L366.933,85.333C371.643,85.333 375.466,81.51 375.466,76.8C375.466,72.09 371.643,68.267 366.933,68.267L324.266,68.267L324.266,42.667C324.266,37.88 328.012,34.134 332.799,34.134L384,34.134C388.864,34.134 392.533,37.803 392.533,42.667L392.533,494.933Z" style="fill:white;fill-rule:nonzero;"/>
        <path d="M59.733,409.6L42.667,409.6C37.957,409.6 34.134,413.423 34.134,418.133C34.134,422.843 37.957,426.666 42.667,426.666L59.734,426.666C64.444,426.666 68.267,422.843 68.267,418.133C68.267,413.423 64.444,409.6 59.733,409.6Z" style="fill:white;fill-rule:nonzero;"/>
        <path d="M59.733,443.733L42.667,443.733C37.957,443.733 34.134,447.556 34.134,452.266C34.134,456.976 37.957,460.799 42.667,460.799L59.734,460.799C64.444,460.799 68.267,456.976 68.267,452.266C68.267,447.556 64.444,443.733 59.733,443.733Z" style="fill:white;fill-rule:nonzero;"/>
        <path d="M281.6,409.6L247.467,409.6C242.757,409.6 238.934,413.423 238.934,418.133C238.934,422.843 242.757,426.666 247.467,426.666L281.6,426.666C286.31,426.666 290.133,422.843 290.133,418.133C290.133,413.423 286.31,409.6 281.6,409.6Z" style="fill:white;fill-rule:nonzero;"/>
        <path d="M59.733,204.8L42.667,204.8C37.957,204.8 34.134,208.623 34.134,213.333C34.134,218.043 37.957,221.866 42.667,221.866L59.734,221.866C64.444,221.866 68.267,218.043 68.267,213.333C68.267,208.623 64.444,204.8 59.733,204.8Z" style="fill:white;fill-rule:nonzero;"/>
        <path d="M59.733,238.933L42.667,238.933C37.957,238.933 34.134,242.756 34.134,247.466C34.134,252.176 37.956,256 42.667,256L59.734,256C64.444,256 68.267,252.177 68.267,247.467C68.267,242.757 64.444,238.933 59.733,238.933Z" style="fill:white;fill-rule:nonzero;"/>
    </g>
</svg>
