<?xml version="1.0" encoding="UTF-8" standalone="no"?>
<!DOCTYPE svg PUBLIC "-//W3C//DTD SVG 1.1//EN" "http://www.w3.org/Graphics/SVG/1.1/DTD/svg11.dtd">
<svg width="100%" height="100%" viewBox="0 0 35 32" version="1.1" xmlns="http://www.w3.org/2000/svg" xmlns:xlink="http://www.w3.org/1999/xlink" xml:space="preserve" xmlns:serif="http://www.serif.com/" style="fill-rule:evenodd;clip-rule:evenodd;stroke-linejoin:round;stroke-miterlimit:2;">
    <g transform="matrix(0.0669762,0,0,0.0669762,0.0668455,-1.33688)">
        <path d="M213.582,307.067L236.538,307.067C242.05,307.067 246.518,302.599 246.518,297.087C246.518,291.574 242.05,287.106 236.538,287.106L213.582,287.106C208.07,287.106 203.602,291.574 203.602,297.087C203.602,302.599 208.07,307.067 213.582,307.067Z" style="fill:white;fill-rule:nonzero;"/>
        <path d="M457.999,406.954C453.73,387.71 436.537,373.27 416.027,373.27L344.826,373.27C334.093,373.27 325.364,364.537 325.364,353.808L325.364,343.328L426.167,343.328C442.678,343.328 456.108,329.898 456.108,313.387L456.108,49.902C456.108,33.391 442.678,19.96 426.167,19.96L28.943,19.96C12.433,19.96 -0.998,33.391 -0.998,49.902L-0.998,313.387C-0.998,329.898 12.433,343.328 28.943,343.328L178.651,343.328L178.651,431.157L80.253,431.157C64.343,431.157 51.4,444.1 51.4,460.01L51.4,481.059C51.4,486.572 55.867,491.04 61.38,491.04L388.74,491.04C392.424,491.04 395.633,489.04 397.36,486.073C401.383,489.18 406.42,491.04 411.886,491.04L486.21,491.04C499.329,491.04 510.003,480.365 510.003,467.246C510.003,436.677 487.383,411.297 457.999,406.954ZM28.943,39.921L426.167,39.921C431.672,39.921 436.147,44.397 436.147,49.902L436.147,251.508L18.963,251.508L18.963,49.902C18.963,44.397 23.439,39.921 28.943,39.921ZM18.963,313.387L18.963,271.469L436.147,271.469L436.147,313.387C436.147,318.888 431.672,323.367 426.167,323.367L28.943,323.367C23.439,323.367 18.963,318.888 18.963,313.387ZM198.612,343.328L256.499,343.328L256.499,431.157L198.612,431.157L198.612,343.328ZM378.76,471.079L71.36,471.079L71.36,460.01C71.36,455.106 75.349,451.118 80.253,451.118L99.805,451.118L99.805,451.617C99.805,457.129 104.273,461.597 109.785,461.597C115.298,461.597 119.766,457.129 119.766,451.617L119.766,451.118L138.23,451.118L138.23,451.617C138.23,457.129 142.698,461.597 148.21,461.597C153.723,461.597 158.191,457.129 158.191,451.617L158.191,451.118L176.655,451.118L176.655,451.617C176.655,457.129 181.122,461.597 186.635,461.597C192.148,461.597 196.616,457.129 196.616,451.617L196.616,451.118L215.08,451.118L215.08,451.617C215.08,457.129 219.547,461.597 225.06,461.597C230.573,461.597 235.04,457.129 235.04,451.617L235.04,451.118L253.504,451.118L253.504,451.617C253.504,457.129 257.972,461.597 263.485,461.597C268.998,461.597 273.465,457.129 273.465,451.617L273.465,451.118L291.929,451.118L291.929,451.617C291.929,457.129 296.397,461.597 301.91,461.597C307.422,461.597 311.89,457.129 311.89,451.617L311.89,451.118L330.354,451.118L330.354,451.617C330.354,457.129 334.822,461.597 340.335,461.597C345.847,461.597 350.315,457.129 350.315,451.617L350.315,451.118L369.867,451.118C374.771,451.118 378.76,455.106 378.76,460.01L378.76,471.079ZM393.142,442.985C387.886,435.819 379.414,431.157 369.867,431.157L276.46,431.157L276.46,343.328L305.403,343.328L305.403,353.808C305.403,375.547 323.087,393.231 344.826,393.231L416.027,393.231C425.602,393.231 433.832,399.102 437.305,407.437C417.453,411.328 401.028,424.884 393.142,442.985ZM486.21,471.079L411.886,471.079C409.773,471.079 408.054,469.359 408.054,467.246C408.054,444.642 426.444,426.252 449.048,426.252C471.652,426.252 490.042,444.642 490.042,467.246C490.042,469.359 488.323,471.079 486.21,471.079Z" style="fill:white;fill-rule:nonzero;"/>
        <path d="M266.479,107.457L392.233,107.457C397.746,107.457 402.214,102.99 402.214,97.477C402.214,91.964 397.746,87.496 392.233,87.496L266.479,87.496C260.966,87.496 256.499,91.964 256.499,97.477C256.499,102.99 260.966,107.457 266.479,107.457Z" style="fill:white;fill-rule:nonzero;"/>
        <path d="M266.479,155.364L392.233,155.364C397.746,155.364 402.214,150.896 402.214,145.383C402.214,139.871 397.746,135.403 392.233,135.403L266.479,135.403C260.966,135.403 256.499,139.871 256.499,145.383C256.499,150.896 260.966,155.364 266.479,155.364Z" style="fill:white;fill-rule:nonzero;"/>
        <path d="M266.479,203.27L324.697,203.27C330.21,203.27 334.678,198.802 334.678,193.29C334.678,187.777 330.21,183.309 324.697,183.309L266.479,183.309C260.966,183.309 256.499,187.777 256.499,193.29C256.499,198.802 260.966,203.27 266.479,203.27Z" style="fill:white;fill-rule:nonzero;"/>
        <path d="M364.615,183.309C361.992,183.309 359.418,184.37 357.563,186.233C355.703,188.093 354.635,190.658 354.635,193.29C354.635,195.917 355.703,198.49 357.563,200.346C359.418,202.202 361.992,203.27 364.615,203.27C367.251,203.27 369.816,202.202 371.672,200.346C373.539,198.49 374.596,195.917 374.596,193.29C374.596,190.658 373.539,188.093 371.672,186.233C369.816,184.37 367.251,183.309 364.615,183.309Z" style="fill:white;fill-rule:nonzero;"/>
        <path d="M85.466,212.752C98.479,212.752 109.571,204.405 113.692,192.791L155.777,192.791C159.898,204.405 170.99,212.752 184,212.752C200.51,212.752 213.941,199.317 213.941,182.81C213.941,166.299 200.51,152.869 184,152.869C182.132,152.869 180.308,153.048 178.534,153.375L157.481,116.912C161.961,111.68 164.674,104.888 164.674,97.473C164.674,80.966 151.243,67.532 134.733,67.532C118.222,67.532 104.791,80.966 104.791,97.473C104.791,104.888 107.509,111.676 111.988,116.912L90.936,153.375C89.162,153.048 87.333,152.869 85.466,152.869C68.955,152.869 55.524,166.299 55.524,182.81C55.524,199.317 68.959,212.752 85.466,212.752ZM134.733,127.418C136.604,127.418 138.429,127.235 140.202,126.908L161.255,163.372C158.889,166.136 157.017,169.333 155.777,172.83L113.692,172.83C112.452,169.333 110.581,166.136 108.214,163.372L129.267,126.908C131.041,127.235 132.865,127.418 134.733,127.418ZM193.98,182.81C193.98,188.311 189.505,192.791 184,192.791C178.499,192.791 174.019,188.311 174.019,182.81C174.019,177.305 178.499,172.83 184,172.83C189.505,172.83 193.98,177.305 193.98,182.81ZM134.733,87.496C140.238,87.496 144.713,91.972 144.713,97.477C144.713,102.978 140.238,107.457 134.733,107.457C129.232,107.457 124.752,102.978 124.752,97.477C124.752,91.972 129.232,87.496 134.733,87.496ZM85.466,172.83C90.971,172.83 95.446,177.305 95.446,182.81C95.446,188.311 90.971,192.791 85.466,192.791C79.965,192.791 75.485,188.311 75.485,182.81C75.485,177.305 79.965,172.83 85.466,172.83Z" style="fill:white;fill-rule:nonzero;"/>
    </g>
</svg>
